<?xml version="1.0" encoding="UTF-8"?>
<svg id="sun" xmlns="http://www.w3.org/2000/svg" viewBox="0 0 1133.86 1133.86">
  <defs>
    <style>
      .cls-1 {
        opacity: .75;
      }

      .cls-2 {
        fill: #eadb9d;
      }

      .cls-2, .cls-3 {
        stroke-width: 0px;
      }

      .cls-3 {
        fill: #eeb51e;
      }
    </style>
  </defs>
  <g class="cls-1">
    <path class="cls-2" d="M744.68,342.34l-41.95-23.14c-.06-.04-.13-.07-.19-.11-6.53-3.62-6.13-13.23.69-16.28.05-.02.1-.05.15-.07l43.75-19.51-46.86-9.93c-.06-.01-.12-.02-.18-.04-7.95-1.7-10.63-11.8-4.56-17.21.04-.04.09-.08.13-.12l35.8-31.83-47.67,4.7c-.08,0-.15.01-.23.02-10.89,1.06-18.62-10.59-13.42-20.22.05-.09.09-.17.14-.26l22.84-42.11-43.23,20.64c-.09.04-.18.09-.27.13-7.34,3.48-15.6-2.89-14.08-10.87.01-.06.02-.12.03-.18l9.04-47.04-34.97,32.74s-.08.08-.12.11c-5.42,5.06-14.37,1.73-15.17-5.65-.01-.11-.02-.21-.03-.32l-5.04-47.64-23.93,41.5c-.06.1-.12.21-.18.31-4.09,7.05-14.54,6.47-17.81-.99-.02-.05-.05-.11-.07-.16l-19.2-43.89-10.26,46.79c-.02.07-.03.15-.05.22-2.34,10.59-15.67,14.3-23.16,6.46-.1-.1-.19-.2-.29-.31l-32.99-34.74,6.27,47.49c.02.12.03.24.05.36,1.05,8.13-7.64,14.07-14.83,10.12-.05-.03-.1-.06-.16-.09l-41.95-23.14,20.33,43.38s.05.1.07.15c3.1,6.64-2.76,14.03-9.94,12.53-.1-.02-.21-.04-.31-.07l-46.86-9.93,32.08,35.58c.07.07.13.14.2.22,5.51,6.14,1.69,16.02-6.52,16.84-.06,0-.12.01-.18.02l-47.67,4.7,41.33,24.22c.07.04.13.08.2.11,9.31,5.48,8.73,19.26-1.01,23.93-.09.04-.17.08-.26.12l-43.23,20.64,47.11,8.71c.06.01.12.02.18.03,8.14,1.52,11.14,11.74,5.1,17.41-.05.04-.09.09-.14.13l-34.97,32.74,47.54-5.94c.07,0,.15-.02.22-.03,7.26-.89,12.48,6.96,8.83,13.31-.03.05-.05.09-.08.14l-23.93,41.5,43.75-19.51c.06-.02.11-.05.17-.07,7.54-3.35,15.75,3.34,14,11.4-.02.1-.04.19-.06.29l-10.26,46.79,35.8-31.83c.1-.09.19-.17.29-.26,8.1-7.16,21.03-2.35,22.46,8.37.01.07.02.15.03.22l6.27,47.49,22.84-42.11c.03-.05.06-.11.09-.16,3.92-7.2,14.43-6.88,17.93.52.05.11.1.22.16.33l20.33,43.38,9.04-47.04c.02-.12.05-.23.07-.35,1.41-7.23,10.55-9.78,15.49-4.32.04.04.07.08.11.12l32.08,35.58-5.04-47.64c0-.06-.01-.12-.02-.18-.85-8.1,7.95-13.77,14.99-9.67.1.06.21.12.31.18l41.33,24.22-19.2-43.89c-.05-.12-.1-.23-.15-.35-4.34-10,4.3-20.9,15.02-18.93.07.01.15.03.22.04l47.11,8.71-32.99-34.74s-.08-.09-.12-.13c-5.59-5.9-2.07-15.72,5.99-16.75.09-.01.19-.02.28-.04l47.54-5.94Z"/>
    <circle class="cls-3" cx="550.05" cy="308.25" r="144.83"/>
  </g>
</svg>