<?xml version="1.0" encoding="UTF-8"?>
<svg id="bg_waves" data-name="bg waves" xmlns="http://www.w3.org/2000/svg" viewBox="0 0 1133.86 1133.86">
  <defs>
    <style>
      .cls-1 {
        fill: #44c8f5;
      }

      .cls-1, .cls-2, .cls-3, .cls-4 {
        stroke-width: 0px;
      }

      .cls-2 {
        fill: #00b9f2;
      }

      .cls-3 {
        fill: #8ed8f8;
      }

      .cls-4 {
        fill: #c7eafb;
      }
    </style>
  </defs>
  <path class="cls-4" d="M17.08,588.64c40.06-2.54,80.22.72,120.14,3.96,40.82,3.32,81.6,4.82,122.55,5.26,84.18.9,168.67-2.92,252.75,2.08,42.44,2.52,84.65,8.29,127.03,11.62,41.59,3.27,83.28,5.33,125,5.68,42.49.35,84.87,1.54,127.32,3.35,41.85,1.79,83.72,3.54,125.62,2.98,39.1-.52,77.78-3.55,116.37-9.52v-254.06c-19.7-12.56-38.73-26.16-58.44-38.72-22.19-14.14-45.17-26.78-69.89-35.93-.17-.06-.33-.12-.5-.18-28-10.31-57.66-15.42-87.5-15.32-23.39.08-46.77,1.08-70.13,3.54-45.1,4.76-89.23,16.02-132.99,27.53-40.62,10.69-81.35,22.9-123.16,27.9-79.21,9.46-160.77-.61-238.3-17.58-41.71-9.12-81.88-23.72-123-35.03-33.59-9.24-67.61-15.4-102.47-16.38-27.98-.78-56.37.39-83.91,5.6-13.88,2.62-30.14,6.36-43.58,13.77v310.93c5.68-.63,11.37-1.14,17.08-1.5Z"/>
  <path class="cls-3" d="M93.08,566.04c45.01-4.77,90.89-5,136.12-4.66,45.33.34,90.67,2.68,135.7,8.01,44.93,5.32,90.18,6.68,135.4,6.81,22.36.06,44.48,2.79,66.62,5.61,22.96,2.92,45.78,4.59,68.9,5.55,45.64,1.9,91.31,2.7,136.98,2.9,92.28.42,184.55-1.57,276.83-1.72,28.08-.05,56.15-.45,84.22-.98v-271.36c-13.43-7.41-29.7-11.15-43.58-13.77-27.55-5.2-55.94-6.38-83.91-5.6-34.86.98-68.88,7.14-102.47,16.38-41.12,11.3-81.29,25.9-123,35.03-77.53,16.96-159.08,27.04-238.3,17.58-41.81-4.99-82.54-17.21-123.16-27.9-43.76-11.52-87.89-22.77-132.99-27.53-23.35-2.47-46.73-3.46-70.13-3.54-29.83-.1-59.5,5-87.5,15.32-.17.06-.33.12-.5.18-24.72,9.15-47.71,21.79-69.89,35.93-19.7,12.56-38.74,26.16-58.44,38.72v183.94c30.93-5.54,61.77-11.56,93.08-14.88Z"/>
  <path class="cls-1" d="M1075.42,386.4c-22.19-7.56-45.17-14.31-69.89-19.2-.17-.03-.33-.07-.5-.1-28-5.51-57.66-8.24-87.5-8.18-23.39.04-46.77.58-70.13,1.89-45.1,2.54-89.23,8.56-132.99,14.71-40.62,5.71-81.35,12.24-123.16,14.91-79.21,5.05-160.77-.33-238.3-9.39-41.71-4.88-81.88-12.68-123-18.71-33.59-4.93-67.61-8.23-102.47-8.75-27.98-.42-56.37.21-83.91,2.99C29.7,357.97,13.43,359.97,0,363.93v204.87s1133.86,0,1133.86,0v-161.7c-19.7-6.71-38.73-13.98-58.44-20.69Z"/>
  <path class="cls-2" d="M136.55,584.3c49.57.76,99.17.35,148.75.99,100.09,1.3,200.16,4.08,300.17,8.33,50.19,2.13,100.25,4.43,150.49,4.54,49.61.1,99.21-.75,148.82-.47,49.27.28,99,.8,147.95,6.93,34.14,4.28,67.99,10.54,101.97,15.91v-273.4c-13.43-14.71-29.7-22.13-43.58-27.33-27.55-10.32-55.94-12.66-83.91-11.1-34.86,1.94-68.88,14.17-102.47,32.49-41.12,22.43-81.29,51.39-123,69.49-77.53,33.65-159.08,53.64-238.3,34.87-41.81-9.91-82.54-34.14-123.16-55.35-43.76-22.85-87.89-45.18-132.99-54.63-23.35-4.89-46.73-6.87-70.13-7.03-29.83-.21-59.5,9.93-87.5,30.39-.17.12-.33.24-.5.36-24.72,18.15-47.71,43.23-69.89,71.29-19.7,24.92-38.74,51.9-58.44,76.83v78.94c45-5.83,90.5-2.74,135.7-2.05Z"/>
</svg>