<?xml version="1.0" encoding="UTF-8"?>
<svg id="bottom_waves" data-name="bottom waves" xmlns="http://www.w3.org/2000/svg" version="1.1" viewBox="0 0 1133.9 1133.9">
  <defs>
    <style>
      .cls-1 {
        fill: #020887;
        stroke-width: 0px;
      }
    </style>
  </defs>
  <path class="cls-1" d="M11.1,631.1c11.5-.3,23,0,34.4.9,23,1.7,45.9,5.4,68.3,11.1,38.6,9.9,77.5,25.3,118.1,18.3,10.5-1.8,20.4-5.5,30.6-8.3,9.8-2.7,19.8-4.8,29.9-6.3,20.8-3.2,42-4.2,63-3,42.3,2.4,84.1,13.4,121.9,32.5,37.5,18.9,77.7,32.5,119.6,36.2,43.7,3.9,85.7-5.9,127.4-18.1,43.8-12.8,87.8-24.5,131.8-36.3,45.2-12.1,90.6-24.1,136.6-32.9,42.1-8,86.4-6.3,126.5,9.5,7.6,3,15,6.6,22.2,10.6v295.4H-3.5v-308.6c4.8-.6,9.7-1,14.6-1.1h0Z"/>
</svg>