<?xml version="1.0" encoding="UTF-8"?>
<svg id="waves_2" data-name="waves 2" xmlns="http://www.w3.org/2000/svg" viewBox="0 0 1133.86 1133.86">
  <defs>
    <style>
      .cls-1 {
        fill: #424AFE;
        stroke-width: 0px;
      }
    </style>
  </defs>
  <path class="cls-1" d="M1142.83,668.13c-2.63-13.29-4.12-26.81-4.02-40.37.05-7.36.8-14.62,1.35-21.95.54-7.06.79-14.14.93-21.22.14-7.32.16-14.64.16-21.95,0-3.62.22-7.23.02-10.85-.2-3.63-.65-7.23-1.24-10.81-.97-5.9-2.32-11.79-3.47-17.72-401.84-205.18-257.96,105.57-590.39,22.43-133.31-13.98-158.43,8.02-146.54,139.02-.01,0,650.62,0,747.02,0-1.41-5.49-2.71-11.02-3.81-16.59Z"/>
</svg>