<?xml version="1.0" encoding="UTF-8"?>
<svg id="waves_3" data-name="waves 3" xmlns="http://www.w3.org/2000/svg" viewBox="0 0 1133.86 1133.86">
  <defs>
    <style>
      .cls-1 {
        fill: #2029DF;
        stroke-width: 0px;
      }
    </style>
  </defs>
  <path class="cls-1" d="M726.75,683.06c-7.03-9.58-14.95-18.67-22.49-27.99-7.74-9.55-15.61-19.08-25.25-27.42-11.26-9.74-24.68-17.12-38.21-24.52-13.16-7.2-26.6-14.09-40.58-20.17-26.22-11.41-54.32-19.29-83.9-21.8-16.18-1.37-32.49-1.3-48.69-.3-16.47,1.02-32.52.4-48.58-3.01-31.57-6.69-59.31-21.65-86.06-36.45-13.87-7.68-27.63-15.41-42.27-22.07-15.57-7.08-31.73-13.29-48.32-18.57-32.49-10.35-66.88-17.49-101.71-19.3-33.92-1.76-69.43,3.32-99.62,16.53-18.5,8.1-31.93,22.14-47.92,33.08v190.98h738.64v-12.02c-1.73-2.4-3.41-4.76-5.04-6.98Z"/>
</svg>