<?xml version="1.0" encoding="UTF-8"?>
<svg id="waves_4" data-name="waves 4" xmlns="http://www.w3.org/2000/svg" viewBox="0 0 1133.86 1133.86">
  <defs>
    <style>
      .cls-1 {
        fill: #0008B8;
        stroke-width: 0px;
      }
    </style>
  </defs>
  <path class="cls-1" d="M1093.3,597.63c-38.92,1.44-75.95-11.1-113.17-20.7-18.61-4.8-37.59-10-56.95-10-15.93,0-31.54,3.36-46.44,8.87-30.85,11.4-58.42,30.14-88.49,43.34-31.91,14.01-66.54,12.96-100.65,11.42-18.24-.83-36.32-1.28-54.57-.48-20.48.9-40.95,2.11-61.44,2.88-20.45.76-40.92.4-61.35,1.31-20.83.93-41.61,2.97-62.25,5.91-19.77,2.81-39.41,6.44-58.93,10.61-17.83,3.81-35.86,7.64-53.36,12.79-24,7.05-47.46,17.43-68.76,30.52-10.59,6.51-22.47,14.62-31.64,24.59v19h902.74v-146.53c-14.63,3.62-29.57,5.94-44.73,6.5Z"/>
</svg>